<mxfile host="app.diagrams.net" agent="Mozilla/5.0 (Windows NT 10.0; Win64; x64) AppleWebKit/537.36 (KHTML, like Gecko) Chrome/136.0.0.0 Safari/537.36" version="27.0.6">
  <diagram name="PÃ¡gina-1" id="7oQdlBhTqvsr6YgJQ0n3">
    <mxGraphModel dx="1426" dy="761" grid="1" gridSize="10" guides="1" tooltips="1" connect="1" arrows="1" fold="1" page="1" pageScale="1" pageWidth="827" pageHeight="1169" math="0" shadow="0">
      <root>
        <mxCell id="0" />
        <mxCell id="1" parent="0" />
        <mxCell id="qbX7SJ6jOsqIW2wdZ_f3-3" value="" style="edgeStyle=orthogonalEdgeStyle;rounded=0;orthogonalLoop=1;jettySize=auto;html=1;endArrow=none;startFill=0;" edge="1" parent="1" source="qbX7SJ6jOsqIW2wdZ_f3-1" target="qbX7SJ6jOsqIW2wdZ_f3-2">
          <mxGeometry relative="1" as="geometry" />
        </mxCell>
        <mxCell id="qbX7SJ6jOsqIW2wdZ_f3-5" value="" style="edgeStyle=orthogonalEdgeStyle;rounded=0;orthogonalLoop=1;jettySize=auto;html=1;endArrow=none;startFill=0;" edge="1" parent="1" source="qbX7SJ6jOsqIW2wdZ_f3-1" target="qbX7SJ6jOsqIW2wdZ_f3-4">
          <mxGeometry relative="1" as="geometry" />
        </mxCell>
        <mxCell id="qbX7SJ6jOsqIW2wdZ_f3-12" value="" style="edgeStyle=orthogonalEdgeStyle;rounded=0;orthogonalLoop=1;jettySize=auto;html=1;endArrow=none;startFill=0;" edge="1" parent="1" source="qbX7SJ6jOsqIW2wdZ_f3-1" target="qbX7SJ6jOsqIW2wdZ_f3-11">
          <mxGeometry relative="1" as="geometry" />
        </mxCell>
        <mxCell id="qbX7SJ6jOsqIW2wdZ_f3-1" value="IMC" style="rounded=0;whiteSpace=wrap;html=1;" vertex="1" parent="1">
          <mxGeometry x="90" y="166" width="120" height="60" as="geometry" />
        </mxCell>
        <mxCell id="qbX7SJ6jOsqIW2wdZ_f3-2" value="Altura" style="ellipse;whiteSpace=wrap;html=1;rounded=0;" vertex="1" parent="1">
          <mxGeometry x="90" y="36" width="120" height="60" as="geometry" />
        </mxCell>
        <mxCell id="qbX7SJ6jOsqIW2wdZ_f3-9" value="" style="edgeStyle=orthogonalEdgeStyle;rounded=0;orthogonalLoop=1;jettySize=auto;html=1;endArrow=none;startFill=0;" edge="1" parent="1" source="qbX7SJ6jOsqIW2wdZ_f3-4" target="qbX7SJ6jOsqIW2wdZ_f3-6">
          <mxGeometry relative="1" as="geometry" />
        </mxCell>
        <mxCell id="qbX7SJ6jOsqIW2wdZ_f3-4" value="altura" style="ellipse;whiteSpace=wrap;html=1;rounded=0;" vertex="1" parent="1">
          <mxGeometry x="90" y="269" width="120" height="60" as="geometry" />
        </mxCell>
        <mxCell id="qbX7SJ6jOsqIW2wdZ_f3-10" value="" style="edgeStyle=orthogonalEdgeStyle;rounded=0;orthogonalLoop=1;jettySize=auto;html=1;endArrow=none;startFill=0;" edge="1" parent="1" source="qbX7SJ6jOsqIW2wdZ_f3-6" target="qbX7SJ6jOsqIW2wdZ_f3-7">
          <mxGeometry relative="1" as="geometry" />
        </mxCell>
        <mxCell id="qbX7SJ6jOsqIW2wdZ_f3-6" value="peso" style="ellipse;whiteSpace=wrap;html=1;rounded=0;" vertex="1" parent="1">
          <mxGeometry x="90" y="371" width="120" height="60" as="geometry" />
        </mxCell>
        <mxCell id="qbX7SJ6jOsqIW2wdZ_f3-7" value="valorIMC" style="ellipse;whiteSpace=wrap;html=1;rounded=0;" vertex="1" parent="1">
          <mxGeometry x="90" y="473" width="120" height="60" as="geometry" />
        </mxCell>
        <mxCell id="qbX7SJ6jOsqIW2wdZ_f3-14" value="" style="edgeStyle=orthogonalEdgeStyle;rounded=0;orthogonalLoop=1;jettySize=auto;html=1;endArrow=none;startFill=0;exitX=1;exitY=0.5;exitDx=0;exitDy=0;" edge="1" parent="1" source="qbX7SJ6jOsqIW2wdZ_f3-11" target="qbX7SJ6jOsqIW2wdZ_f3-13">
          <mxGeometry relative="1" as="geometry">
            <mxPoint x="385" y="196" as="sourcePoint" />
          </mxGeometry>
        </mxCell>
        <mxCell id="qbX7SJ6jOsqIW2wdZ_f3-11" value="sugerir" style="rhombus;whiteSpace=wrap;html=1;rounded=0;" vertex="1" parent="1">
          <mxGeometry x="280" y="156" width="80" height="80" as="geometry" />
        </mxCell>
        <mxCell id="qbX7SJ6jOsqIW2wdZ_f3-18" value="" style="edgeStyle=orthogonalEdgeStyle;rounded=0;orthogonalLoop=1;jettySize=auto;html=1;endArrow=none;startFill=0;" edge="1" parent="1" source="qbX7SJ6jOsqIW2wdZ_f3-13" target="qbX7SJ6jOsqIW2wdZ_f3-17">
          <mxGeometry relative="1" as="geometry" />
        </mxCell>
        <mxCell id="qbX7SJ6jOsqIW2wdZ_f3-20" value="" style="edgeStyle=orthogonalEdgeStyle;rounded=0;orthogonalLoop=1;jettySize=auto;html=1;endArrow=none;startFill=0;" edge="1" parent="1" source="qbX7SJ6jOsqIW2wdZ_f3-13" target="qbX7SJ6jOsqIW2wdZ_f3-19">
          <mxGeometry relative="1" as="geometry" />
        </mxCell>
        <mxCell id="qbX7SJ6jOsqIW2wdZ_f3-22" value="" style="edgeStyle=orthogonalEdgeStyle;rounded=0;orthogonalLoop=1;jettySize=auto;html=1;endArrow=none;startFill=0;" edge="1" parent="1" source="qbX7SJ6jOsqIW2wdZ_f3-13" target="qbX7SJ6jOsqIW2wdZ_f3-21">
          <mxGeometry relative="1" as="geometry" />
        </mxCell>
        <mxCell id="qbX7SJ6jOsqIW2wdZ_f3-13" value="sugestao de tarefas" style="whiteSpace=wrap;html=1;rounded=0;" vertex="1" parent="1">
          <mxGeometry x="445" y="166" width="120" height="60" as="geometry" />
        </mxCell>
        <mxCell id="qbX7SJ6jOsqIW2wdZ_f3-17" value="id&lt;span style=&quot;color: rgba(0, 0, 0, 0); font-family: monospace; font-size: 0px; text-align: start; text-wrap-mode: nowrap;&quot;&gt;%3CmxGraphModel%3E%3Croot%3E%3CmxCell%20id%3D%220%22%2F%3E%3CmxCell%20id%3D%221%22%20parent%3D%220%22%2F%3E%3CmxCell%20id%3D%222%22%20value%3D%22Altura%22%20style%3D%22ellipse%3BwhiteSpace%3Dwrap%3Bhtml%3D1%3Brounded%3D0%3B%22%20vertex%3D%221%22%20parent%3D%221%22%3E%3CmxGeometry%20x%3D%2290%22%20y%3D%22100%22%20width%3D%22120%22%20height%3D%2260%22%20as%3D%22geometry%22%2F%3E%3C%2FmxCell%3E%3C%2Froot%3E%3C%2FmxGraphModel%3E&lt;/span&gt;" style="ellipse;whiteSpace=wrap;html=1;rounded=0;" vertex="1" parent="1">
          <mxGeometry x="384" y="56" width="120" height="60" as="geometry" />
        </mxCell>
        <mxCell id="qbX7SJ6jOsqIW2wdZ_f3-19" value="descricao" style="ellipse;whiteSpace=wrap;html=1;rounded=0;" vertex="1" parent="1">
          <mxGeometry x="516" y="56" width="120" height="60" as="geometry" />
        </mxCell>
        <mxCell id="qbX7SJ6jOsqIW2wdZ_f3-24" value="" style="edgeStyle=orthogonalEdgeStyle;rounded=0;orthogonalLoop=1;jettySize=auto;html=1;endArrow=none;startFill=0;" edge="1" parent="1" source="qbX7SJ6jOsqIW2wdZ_f3-21" target="qbX7SJ6jOsqIW2wdZ_f3-23">
          <mxGeometry relative="1" as="geometry" />
        </mxCell>
        <mxCell id="qbX7SJ6jOsqIW2wdZ_f3-21" value="imcMin" style="ellipse;whiteSpace=wrap;html=1;rounded=0;" vertex="1" parent="1">
          <mxGeometry x="445" y="272" width="120" height="60" as="geometry" />
        </mxCell>
        <mxCell id="qbX7SJ6jOsqIW2wdZ_f3-23" value="imcMax" style="ellipse;whiteSpace=wrap;html=1;rounded=0;" vertex="1" parent="1">
          <mxGeometry x="445" y="370" width="120" height="60" as="geometry" />
        </mxCell>
        <mxCell id="qbX7SJ6jOsqIW2wdZ_f3-28" value="" style="edgeStyle=orthogonalEdgeStyle;rounded=0;orthogonalLoop=1;jettySize=auto;html=1;endArrow=none;startFill=0;exitX=1;exitY=0.5;exitDx=0;exitDy=0;" edge="1" parent="1" source="qbX7SJ6jOsqIW2wdZ_f3-25" target="qbX7SJ6jOsqIW2wdZ_f3-27">
          <mxGeometry relative="1" as="geometry">
            <mxPoint x="385" y="565" as="sourcePoint" />
          </mxGeometry>
        </mxCell>
        <mxCell id="qbX7SJ6jOsqIW2wdZ_f3-25" value="Usuario" style="rhombus;whiteSpace=wrap;html=1;rounded=0;" vertex="1" parent="1">
          <mxGeometry x="280" y="525" width="80" height="80" as="geometry" />
        </mxCell>
        <mxCell id="qbX7SJ6jOsqIW2wdZ_f3-27" value="TarefaUsuario" style="whiteSpace=wrap;html=1;rounded=0;" vertex="1" parent="1">
          <mxGeometry x="445" y="535" width="120" height="60" as="geometry" />
        </mxCell>
        <mxCell id="qbX7SJ6jOsqIW2wdZ_f3-36" value="" style="edgeStyle=orthogonalEdgeStyle;rounded=0;orthogonalLoop=1;jettySize=auto;html=1;endArrow=none;startFill=0;" edge="1" parent="1" source="qbX7SJ6jOsqIW2wdZ_f3-29" target="qbX7SJ6jOsqIW2wdZ_f3-27">
          <mxGeometry relative="1" as="geometry">
            <Array as="points">
              <mxPoint x="440" y="516" />
              <mxPoint x="505" y="516" />
            </Array>
          </mxGeometry>
        </mxCell>
        <mxCell id="qbX7SJ6jOsqIW2wdZ_f3-29" value="id" style="ellipse;whiteSpace=wrap;html=1;rounded=0;" vertex="1" parent="1">
          <mxGeometry x="380" y="446" width="120" height="60" as="geometry" />
        </mxCell>
        <mxCell id="qbX7SJ6jOsqIW2wdZ_f3-40" value="" style="edgeStyle=orthogonalEdgeStyle;rounded=0;orthogonalLoop=1;jettySize=auto;html=1;endArrow=none;startFill=0;" edge="1" parent="1" source="qbX7SJ6jOsqIW2wdZ_f3-31" target="qbX7SJ6jOsqIW2wdZ_f3-27">
          <mxGeometry relative="1" as="geometry">
            <Array as="points">
              <mxPoint x="564" y="516" />
              <mxPoint x="505" y="516" />
            </Array>
          </mxGeometry>
        </mxCell>
        <mxCell id="qbX7SJ6jOsqIW2wdZ_f3-31" value="descricao" style="ellipse;whiteSpace=wrap;html=1;rounded=0;" vertex="1" parent="1">
          <mxGeometry x="504" y="446" width="120" height="60" as="geometry" />
        </mxCell>
        <mxCell id="qbX7SJ6jOsqIW2wdZ_f3-37" value="1" style="text;html=1;align=center;verticalAlign=middle;whiteSpace=wrap;rounded=0;" vertex="1" parent="1">
          <mxGeometry x="210" y="171" width="60" height="30" as="geometry" />
        </mxCell>
        <mxCell id="qbX7SJ6jOsqIW2wdZ_f3-38" value="n" style="text;html=1;align=center;verticalAlign=middle;whiteSpace=wrap;rounded=0;" vertex="1" parent="1">
          <mxGeometry x="385" y="172" width="60" height="30" as="geometry" />
        </mxCell>
        <mxCell id="qbX7SJ6jOsqIW2wdZ_f3-39" value="n" style="text;html=1;align=center;verticalAlign=middle;whiteSpace=wrap;rounded=0;" vertex="1" parent="1">
          <mxGeometry x="385" y="540" width="60" height="30" as="geometry" />
        </mxCell>
      </root>
    </mxGraphModel>
  </diagram>
</mxfile>
